<svg width="24" height="24" viewBox="0 0 24 24" fill="none" xmlns="http://www.w3.org/2000/svg">
<path d="M8.2 5.2H12.84C13.32 5.2 13.76 5.48 13.92 5.96L14.52 7.52C14.68 7.88 15 8.12 15.4 8.12H23.2C23.64 8.12 23.96 7.76 23.96 7.36V5.4C24 2.44 21.56 0 18.6 0H5.4C2.44 0 0 2.44 0 5.4V13.08C1.4 12.92 2.96 12.8 4.72 12.8C10.56 12.8 14.56 13.88 15.56 14.88C16.28 15.6 16.64 16.24 16.64 17.92C16.64 18.4 16.24 18.8 15.76 18.8H11.12C10.64 18.8 10.2 18.52 10.04 18.04L9.44 16.48C9.28 16.12 8.96 15.88 8.56 15.88H0.76C0.32 15.88 0 16.24 0 16.64V18.6C0 21.56 2.44 24 5.4 24H18.6C21.56 24 24 21.56 24 18.6V10.92C22.6 11.08 21.04 11.2 19.28 11.2C13.44 11.2 9.44 10.12 8.44 9.12C7.72 8.4 7.36 7.76 7.36 6.08C7.32 5.6 7.72 5.2 8.2 5.2Z" fill="white"/>
</svg>
