<svg width="127" height="48" viewBox="0 0 127 48" fill="none" xmlns="http://www.w3.org/2000/svg">
<path d="M103.666 38.6009V9.39941H115.97C118.131 9.39941 119.946 9.69884 121.415 10.2977C122.893 10.8966 124.006 11.7426 124.754 12.8357C125.512 13.9289 125.891 15.2169 125.891 16.6998C125.891 17.7739 125.66 18.753 125.198 19.6371C124.745 20.5211 124.108 21.2625 123.286 21.8614C122.464 22.4507 121.503 22.8595 120.404 23.0876V23.3728C121.623 23.4203 122.731 23.7388 123.729 24.3281C124.727 24.908 125.521 25.7112 126.112 26.7378C126.703 27.7549 126.999 28.9526 126.999 30.331C126.999 31.9279 126.593 33.349 125.78 34.5943C124.976 35.8395 123.831 36.8186 122.344 37.5315C120.856 38.2445 119.083 38.6009 117.023 38.6009H103.666ZM111.37 32.2701H114.972C116.265 32.2701 117.235 32.023 117.882 31.5287C118.529 31.0249 118.852 30.2834 118.852 29.3044C118.852 28.6199 118.699 28.0401 118.395 27.5648C118.09 27.0895 117.656 26.7283 117.092 26.4812C116.538 26.234 115.868 26.1104 115.083 26.1104H111.37V32.2701ZM111.37 21.2055H114.529C115.203 21.2055 115.799 21.0962 116.316 20.8776C116.834 20.6589 117.235 20.3452 117.522 19.9365C117.817 19.5182 117.965 19.0097 117.965 18.4108C117.965 17.5078 117.651 16.8186 117.023 16.3433C116.395 15.8585 115.6 15.6161 114.64 15.6161H111.37V21.2055Z" fill="#4BE2EB"/>
<path d="M88.0962 9C89.7496 9 91.3153 9.27091 92.7933 9.81274C94.2712 10.3451 95.5783 11.1863 96.7144 12.3365C97.8598 13.4867 98.7558 14.9886 99.4024 16.8422C100.058 18.6863 100.391 20.9202 100.4 23.5437C100.409 25.9392 100.118 28.0922 99.5271 30.0028C98.9452 31.904 98.1092 33.5247 97.0193 34.865C95.9385 36.2053 94.6361 37.2319 93.1119 37.9449C91.5971 38.6483 89.9067 39 88.0408 39C85.9439 39 84.1011 38.5865 82.5123 37.7595C80.9235 36.9325 79.6581 35.8203 78.7159 34.423C77.7737 33.0257 77.2241 31.4715 77.067 29.7605H84.66C84.8447 30.6445 85.2511 31.2861 85.8793 31.6854C86.5074 32.0751 87.2279 32.27 88.0408 32.27C89.6665 32.27 90.8535 31.5475 91.6017 30.1027C92.3591 28.6483 92.7425 26.7091 92.7517 24.2852H92.5854C92.2252 25.1787 91.6802 25.9439 90.9505 26.5808C90.2207 27.2177 89.3709 27.7072 88.401 28.0494C87.4311 28.3916 86.4058 28.5627 85.325 28.5627C83.6162 28.5627 82.1198 28.1682 80.8358 27.3793C79.5518 26.5808 78.5496 25.4924 77.8291 24.1141C77.1086 22.7262 76.7437 21.1483 76.7345 19.3802C76.7253 17.308 77.201 15.4924 78.1616 13.9335C79.1223 12.3745 80.4571 11.1625 82.1659 10.2975C83.8748 9.43251 85.8516 9 88.0962 9ZM88.1516 14.9886C87.3849 14.9886 86.7014 15.1692 86.101 15.5304C85.5098 15.8916 85.0433 16.3812 84.7015 16.999C84.369 17.6169 84.2074 18.3156 84.2166 19.0951C84.2258 19.8745 84.3967 20.5732 84.7292 21.1911C85.071 21.8089 85.5329 22.2985 86.1148 22.6597C86.706 23.0209 87.3849 23.2015 88.1516 23.2015C88.7151 23.2015 89.237 23.1017 89.7173 22.9021C90.1976 22.693 90.6133 22.403 90.9643 22.0323C91.3246 21.6521 91.6017 21.2148 91.7957 20.7205C91.9989 20.2167 92.0959 19.6749 92.0866 19.0951C92.0774 18.3156 91.9019 17.6169 91.5601 16.999C91.2183 16.3812 90.7519 15.8916 90.1607 15.5304C89.5695 15.1692 88.8998 14.9886 88.1516 14.9886Z" fill="#4BE2EB"/>
<path d="M71.1868 9.39941V38.6009H63.483V16.6998H63.3167L57.1094 20.5211V13.791L64.0926 9.39941H71.1868Z" fill="#4BE2EB"/>
<path d="M32.0503 38.6008V32.8973L42.6361 23.8859C43.3381 23.2871 43.9385 22.7262 44.4373 22.2034C44.9454 21.6711 45.3333 21.1245 45.6012 20.5637C45.8783 20.0029 46.0169 19.3802 46.0169 18.6958C46.0169 17.9449 45.8598 17.3032 45.5458 16.7709C45.241 16.2386 44.816 15.8298 44.2711 15.5447C43.7261 15.25 43.0979 15.1027 42.3867 15.1027C41.6754 15.1027 41.0473 15.25 40.5023 15.5447C39.9665 15.8394 39.5509 16.2719 39.2553 16.8422C38.9597 17.4125 38.8119 18.1065 38.8119 18.924H31.4961C31.4961 16.8707 31.9441 15.1027 32.8401 13.6198C33.7361 12.1369 35.0016 10.9962 36.6366 10.1977C38.2715 9.39924 40.1882 9 42.3867 9C44.659 9 46.6265 9.37548 48.2892 10.1264C49.9611 10.8679 51.2497 11.9135 52.1549 13.2633C53.0694 14.6131 53.5267 16.1958 53.5267 18.0114C53.5267 19.1331 53.3004 20.25 52.8477 21.3622C52.3951 22.4648 51.5822 23.6863 50.4091 25.0266C49.236 26.3669 47.5687 27.9639 45.4072 29.8175L42.7469 32.0989V32.27H53.8315V38.6008H32.0503Z" fill="#4BE2EB"/>
<path d="M8.31342 38.6008H0L9.36645 9.39929H19.8968L29.2632 38.6008H20.9498L14.7425 17.4411H14.5208L8.31342 38.6008ZM6.76158 27.0799H22.3908V33.0115H6.76158V27.0799Z" fill="#4BE2EB"/>
</svg>
